<!-- Generated by IcoMoon.io -->
<svg version="1.1" xmlns="http://www.w3.org/2000/svg" width="512" height="512" viewBox="0 0 512 512">
<g id="icomoon-ignore">
</g>
<path d="M15.869 435.698l121.276-103.147c12.537-11.283 25.945-16.463 36.776-15.963-28.628-33.534-45.921-77.039-45.921-124.588 0-106.039 85.961-192 192-192s192 85.961 192 192-85.961 192-192 192c-47.549 0-91.054-17.293-124.588-45.922 0.5 10.831-4.68 24.239-15.963 36.776l-103.147 121.276c-17.661 19.623-46.511 21.277-64.11 3.678s-15.946-46.449 3.677-64.11zM320 320c70.692 0 128-57.308 128-128s-57.308-128-128-128-128 57.308-128 128 57.307 128 128 128z"></path>
</svg>
